<svg width="312" height="48" viewBox="0 0 312 48" fill="none" xmlns="http://www.w3.org/2000/svg">
<path d="M0.323945 0.953997H14.5259C17.8739 0.953997 20.4479 1.206 22.2479 1.71C24.0839 2.178 25.3799 2.952 26.1359 4.032C26.8919 5.076 27.2699 6.552 27.2699 8.46V12.78C27.2699 13.752 26.8739 14.67 26.0819 15.534C25.3259 16.398 24.4259 16.992 23.3819 17.316V17.586C24.7499 17.73 25.9919 18.324 27.1079 19.368C28.2599 20.376 28.8359 21.51 28.8359 22.77V28.17C28.8359 31.014 27.7019 33.03 25.4339 34.218C23.1659 35.406 19.6559 36 14.9039 36H0.323945V0.953997ZM14.5259 15.21C15.8579 15.21 16.8479 15.102 17.4959 14.886C18.1439 14.67 18.5759 14.328 18.7919 13.86C19.0439 13.356 19.1699 12.636 19.1699 11.7V9.972C19.1699 9.144 19.0619 8.532 18.8459 8.136C18.6299 7.704 18.1799 7.398 17.4959 7.218C16.8479 7.038 15.8039 6.948 14.3639 6.948H8.74795V15.21H14.5259ZM14.7419 30.006C16.7939 30.006 18.2519 29.772 19.1159 29.304C19.9799 28.836 20.4119 28.08 20.4119 27.036V24.228C20.4119 22.932 20.0699 22.014 19.3859 21.474C18.7379 20.934 17.5679 20.664 15.8759 20.664H8.74795V30.006H14.7419ZM47.3993 36.54C38.1473 36.54 33.5213 33.714 33.5213 28.062V18.666C33.5213 15.39 34.5653 13.014 36.6533 11.538C38.7773 10.062 42.0353 9.324 46.4273 9.324C50.5673 9.324 53.5913 10.044 55.4993 11.484C57.4433 12.888 58.4153 15.282 58.4153 18.666V25.038H41.4593V27.414C41.4593 28.926 41.9993 30.006 43.0793 30.654C44.1593 31.302 46.1033 31.626 48.9113 31.626C51.5033 31.626 54.4193 31.248 57.6593 30.492V35.514C54.4553 36.198 51.0353 36.54 47.3993 36.54ZM50.9093 20.556V16.776C50.9093 15.912 50.5493 15.264 49.8293 14.832C49.1453 14.4 47.9753 14.184 46.3193 14.184C44.4113 14.184 43.1333 14.4 42.4853 14.832C41.8013 15.3 41.4593 15.948 41.4593 16.776V20.556H50.9093ZM71.8394 36.54C69.3914 36.54 67.5554 36.324 66.3314 35.892C65.1434 35.424 64.2974 34.614 63.7934 33.462C63.3254 32.274 63.0914 30.51 63.0914 28.17C63.0914 26.082 63.3434 24.444 63.8474 23.256C64.3874 22.068 65.2334 21.222 66.3854 20.718C67.5734 20.178 69.1934 19.908 71.2454 19.908H80.1014V18.126C80.1014 17.01 79.9394 16.182 79.6154 15.642C79.3274 15.102 78.7694 14.724 77.9414 14.508C77.1494 14.292 75.9434 14.184 74.3234 14.184C72.0914 14.184 69.0314 14.4 65.1434 14.832V9.864C67.9874 9.504 71.3174 9.324 75.1334 9.324C78.4814 9.324 81.0554 9.576 82.8554 10.08C84.6914 10.584 86.0054 11.448 86.7974 12.672C87.5894 13.896 87.9854 15.678 87.9854 18.018V36H80.2634V33.624C79.6514 34.668 78.8234 35.406 77.7794 35.838C76.7354 36.306 74.7554 36.54 71.8394 36.54ZM74.9174 31.626C76.5014 31.626 77.6354 31.572 78.3194 31.464C78.8234 31.392 79.1654 31.284 79.3454 31.14C79.5614 30.996 79.7414 30.762 79.8854 30.438C80.0294 30.186 80.1014 29.808 80.1014 29.304V24.228H74.7014C73.4774 24.228 72.6134 24.318 72.1094 24.498C71.6054 24.642 71.2634 24.966 71.0834 25.47C70.9034 25.938 70.8134 26.784 70.8134 28.008C70.8134 29.196 70.9034 30.024 71.0834 30.492C71.2634 30.96 71.6054 31.266 72.1094 31.41C72.6494 31.554 73.5854 31.626 74.9174 31.626ZM103.994 36.54C100.646 36.54 98.2878 35.946 96.9198 34.758C95.5878 33.534 94.9218 31.626 94.9218 29.034V9.864H102.806V27.954C102.806 28.962 102.896 29.718 103.076 30.222C103.292 30.726 103.688 31.086 104.264 31.302C104.876 31.518 105.794 31.626 107.018 31.626C108.566 31.626 109.7 31.536 110.42 31.356C111.14 31.14 111.626 30.78 111.878 30.276C112.13 29.772 112.256 28.998 112.256 27.954V9.864H120.14V36H112.364V32.814C111.788 35.298 108.998 36.54 103.994 36.54ZM140.105 36.54C138.773 36.54 137.657 36.486 136.757 36.378C135.857 36.27 134.957 36.054 134.057 35.73C133.049 35.406 132.221 34.956 131.573 34.38C130.961 33.804 130.457 33.012 130.061 32.004C129.629 30.96 129.413 29.754 129.413 28.386V14.724H124.121V9.864H129.413V2.304H137.297V9.864H144.479V14.724H137.297V27.036C137.297 28.296 137.405 29.25 137.621 29.898C137.837 30.51 138.251 30.96 138.863 31.248C139.475 31.5 140.411 31.626 141.671 31.626C142.175 31.626 143.111 31.536 144.479 31.356V36.27C142.787 36.45 141.329 36.54 140.105 36.54ZM156.425 35.784L146.003 9.864H154.589L160.475 28.332L165.821 9.864H173.975L159.665 47.232H151.673L156.425 35.784ZM189.022 30.87L207.274 6.948H189.562V0.953997H217.642V6.03L199.39 29.952H217.966V36H189.022V30.87ZM235.911 36.54C234.291 36.54 232.959 36.486 231.915 36.378C230.871 36.27 229.755 36.054 228.567 35.73C227.271 35.37 226.227 34.866 225.435 34.218C224.643 33.534 223.977 32.58 223.437 31.356C222.897 30.168 222.627 28.728 222.627 27.036V19.314C222.627 17.586 222.897 16.074 223.437 14.778C223.977 13.482 224.679 12.474 225.543 11.754C226.299 11.142 227.289 10.638 228.513 10.242C229.773 9.81 230.997 9.54 232.185 9.432C233.553 9.36 234.795 9.324 235.911 9.324C237.567 9.324 238.881 9.378 239.853 9.486C240.861 9.558 241.959 9.774 243.147 10.134C244.443 10.53 245.487 11.07 246.279 11.754C247.107 12.438 247.809 13.41 248.385 14.67C248.925 15.966 249.195 17.514 249.195 19.314V27.036C249.195 28.656 248.925 30.078 248.385 31.302C247.881 32.526 247.215 33.48 246.387 34.164C245.667 34.776 244.677 35.28 243.417 35.676C242.193 36.036 240.987 36.27 239.799 36.378C238.719 36.486 237.423 36.54 235.911 36.54ZM235.911 31.626C237.387 31.626 238.503 31.518 239.259 31.302C240.015 31.05 240.537 30.672 240.825 30.168C241.149 29.664 241.311 28.926 241.311 27.954V18.072C241.311 16.632 240.933 15.624 240.177 15.048C239.421 14.472 237.999 14.184 235.911 14.184C233.823 14.184 232.401 14.472 231.645 15.048C230.889 15.624 230.511 16.632 230.511 18.072V27.954C230.511 28.926 230.655 29.664 230.943 30.168C231.267 30.672 231.807 31.05 232.563 31.302C233.319 31.518 234.435 31.626 235.911 31.626ZM255.34 9.864H263.116V13.05C263.728 10.566 266.518 9.324 271.486 9.324C274.834 9.324 277.174 9.936 278.506 11.16C279.874 12.348 280.558 14.238 280.558 16.83V36H272.674V17.856C272.674 16.848 272.566 16.092 272.35 15.588C272.17 15.084 271.774 14.724 271.162 14.508C270.586 14.292 269.686 14.184 268.462 14.184C266.914 14.184 265.78 14.292 265.06 14.508C264.34 14.688 263.854 15.03 263.602 15.534C263.35 16.038 263.224 16.812 263.224 17.856V36H255.34V9.864ZM300.577 36.54C291.325 36.54 286.699 33.714 286.699 28.062V18.666C286.699 15.39 287.743 13.014 289.831 11.538C291.955 10.062 295.213 9.324 299.605 9.324C303.745 9.324 306.769 10.044 308.677 11.484C310.621 12.888 311.593 15.282 311.593 18.666V25.038H294.637V27.414C294.637 28.926 295.177 30.006 296.257 30.654C297.337 31.302 299.281 31.626 302.089 31.626C304.681 31.626 307.597 31.248 310.837 30.492V35.514C307.633 36.198 304.213 36.54 300.577 36.54ZM304.087 20.556V16.776C304.087 15.912 303.727 15.264 303.007 14.832C302.323 14.4 301.153 14.184 299.497 14.184C297.589 14.184 296.311 14.4 295.663 14.832C294.979 15.3 294.637 15.948 294.637 16.776V20.556H304.087Z" fill="#2B7FFF"/>
</svg>
